# xmcd CD database file
#
# Track frame offsets:
#	150
#	29089
#	46333
#	69845
#	92683
#	111257
#	135329
#	162730
#	186780
#
# Disc length: 2961 seconds
#
# Revision: 0
# Processed by: cddbd v1.5.1PL0 Copyright (c) Steve Scherf et al.
# Submitted via: CDex 1.51
#
DISCID=780b8f09
DTITLE=Lee Rogers - Promise of Day
DYEAR=2003
DGENRE=Blues
TTITLE0=How will I sleep?
TTITLE1=Castles
TTITLE2=Foolsgold
TTITLE3=Breathe
TTITLE4=Someone Cried
TTITLE5=Walk with me
TTITLE6=More than one place
TTITLE7=All going somewhere
TTITLE8=Long gone days
EXTD=YEAR: 2003
EXTT0=
EXTT1=
EXTT2=
EXTT3=
EXTT4=
EXTT5=
EXTT6=
EXTT7=
EXTT8=
PLAYORDER=
